<?xml version="1.0" encoding="utf-8"?>
<!-- Generator: Adobe Illustrator 18.0.0, SVG Export Plug-In . SVG Version: 6.00 Build 0)  -->
<!DOCTYPE svg PUBLIC "-//W3C//DTD SVG 1.1//EN" "http://www.w3.org/Graphics/SVG/1.1/DTD/svg11.dtd">
<svg version="1.1" xmlns="http://www.w3.org/2000/svg" xmlns:xlink="http://www.w3.org/1999/xlink" x="0px" y="0px"
	 viewBox="0 0 450 656.2" enable-background="new 0 0 450 656.2" xml:space="preserve">
<g id="Layer_2">
	<path fill="#0D57A2" stroke="#0D57A2" stroke-miterlimit="10" d="M438.5,656.2H11.4c-6.3,0-11.4-5.1-11.4-11.4V51.2
		c0-6.3,5.1-11.4,11.4-11.4h427.1c6.3,0,11.4,5.1,11.4,11.4v593.6C450,651.1,444.9,656.2,438.5,656.2z"/>
</g>
<g id="Layer_2_copy">
	<rect x="19.5" y="66.5" fill="#F7F7F7" width="410.9" height="563"/>
</g>
<g id="Layer_5">
	<path fill="#0D5087" d="M287.4,83.3H162.5c-5.1,0-9.2-4.1-9.2-9.2V46.4c0-5.1,4.1-9.2,9.2-9.2h124.9c5.1,0,9.2,4.1,9.2,9.2v27.6
		C296.6,79.1,292.5,83.3,287.4,83.3z"/>
</g>
<g id="Layer_4">
	<path fill="#0D5087" d="M242.5,0h-35C187.9,0,172,15.9,172,35.5v32.8h106V35.5C278,15.9,262.1,0,242.5,0z M225,33.5
		c-5.1,0-9.3-4.1-9.3-9.3s4.1-9.3,9.3-9.3s9.3,4.1,9.3,9.3S230.1,33.5,225,33.5z"/>
</g>
</svg>
